<svg xmlns="http://www.w3.org/2000/svg" width="128" height="128" viewBox="0 0 128 128" fill="none">
  <title>InsuraFlow</title>
  <rect width="128" height="128" rx="34" fill="url(#bg)" />
  <rect x="8" y="8" width="112" height="112" rx="28" stroke="url(#ring)" stroke-opacity=".45" />
  <path d="M64 18C79.53 28.52 92.31 31.42 103 33.1V63.69C103 87.2 88.82 105.94 64 114C39.18 105.94 25 87.2 25 63.69V33.1C35.69 31.42 48.47 28.52 64 18Z" fill="url(#shield)" />
  <path d="M40 53.5C46.27 47.44 55.25 44 64.74 44C74.85 44 84.11 47.88 90 54.22C83.89 62.76 74.61 68.46 63.96 69.89C53.93 71.26 44.19 68.82 36.58 63.39C37.22 59.78 38.45 56.4 40 53.5Z" fill="url(#flow)" />
  <path d="M38 76.09C45.33 80.83 54.62 82.84 64.13 81.54C73.67 80.25 82.34 75.83 89 69.02C88.15 76.25 84.91 83.03 79.76 88.21C74.62 93.4 67.87 96.68 60.56 97.52C51.88 98.51 43.37 96.09 36.68 90.84C37.05 85.75 37.51 80.94 38 76.09Z" fill="white" fill-opacity=".92" />
  <circle cx="92" cy="35" r="8" fill="#67E8F9" fill-opacity=".95" />
  <defs>
    <linearGradient id="bg" x1="14" y1="10" x2="109" y2="118" gradientUnits="userSpaceOnUse">
      <stop stop-color="#1C163D" />
      <stop offset=".55" stop-color="#22195A" />
      <stop offset="1" stop-color="#0B1023" />
    </linearGradient>
    <linearGradient id="ring" x1="20" y1="12" x2="111" y2="118" gradientUnits="userSpaceOnUse">
      <stop stop-color="#C084FC" />
      <stop offset="1" stop-color="#67E8F9" />
    </linearGradient>
    <linearGradient id="shield" x1="42" y1="24" x2="90" y2="110" gradientUnits="userSpaceOnUse">
      <stop stop-color="#9F67FF" />
      <stop offset=".55" stop-color="#7C3AED" />
      <stop offset="1" stop-color="#312E81" />
    </linearGradient>
    <linearGradient id="flow" x1="38" y1="46" x2="88" y2="72" gradientUnits="userSpaceOnUse">
      <stop stop-color="#A78BFA" />
      <stop offset=".6" stop-color="#F0ABFC" />
      <stop offset="1" stop-color="#67E8F9" />
    </linearGradient>
  </defs>
</svg>
